<svg xmlns="http://www.w3.org/2000/svg" width="399" height="151" fill="none">
  <g clip-path="url(#a)">
    <path fill="#495B73" d="M76.634 12.01c.565 0 1.13-.005 1.695-.01 5.417-.021 10.539 1.264 15.438 3.546l.483.225c3.646 1.737 6.826 4.221 9.737 7.004l.535.487c6.281 5.93 9.794 14.163 11.679 22.445l.496-.45c7.283-6.344 18.097-11.643 27.92-11.016 2.907.41 5.455 1.596 7.313 3.908 1.611 2.251 1.756 4.6 1.411 7.309-.495 1.913-1.444 3.51-2.742 4.985l-.416.494c-1.839 2.024-4.317 3.208-6.813 4.242l.319.501.414.667.412.657c.871 1.653.848 3.769.456 5.566a9.27 9.27 0 0 1-4.296 5.072c-1.372.611-2.8.826-4.284.997l.026.438c.058 1.675-.216 2.668-1.35 3.955-1.669 1.475-3.002 2.16-5.235 2.119l-.947-.014-.72-.017.219.95c1.473 7.578 2.208 18.495-2.214 25.313-4.436 5.86-11.752 7.406-18.647 8.4-9.846 1.32-19.81 1.748-29.724 2.195-.636.028-1.27.058-1.906.088-2.184.101-4.367.164-6.553.194l-.72.01c-20.91.278-20.91.278-26.2-3.5l-.795-.56c-5.424-5.304-5.281-14.673-5.858-21.749l-.05-.616c-.048-.587-.094-1.173-.14-1.76l-.042-.528a36.688 36.688 0 0 1-.095-3.203l-.95.25c-2.782.547-6.29.818-8.772-.748-1.06-.74-1.985-1.53-2.492-2.742a21.205 21.205 0 0 1-.25-2.244l-.713.244c-2.85.809-6.63.61-9.257-.742-2.247-1.27-3.895-2.873-4.618-5.397-.413-2.05-.089-3.725.88-5.57.24-.339.488-.673.747-.998l-.841-.046c-2.914-.385-5.21-2.462-6.98-4.69C.457 55.198-.362 52.318.152 49.32c.75-2.958 2.666-4.877 5.185-6.454 5.197-2.877 11.482-2.235 16.995-.723 5.825 1.686 11.49 4.116 16.348 7.802l-.031-.888c.03-9.704 4.892-18.486 11.497-25.284l.398-.416c1.053-1.082 2.169-2.025 3.372-2.934l.563-.426c6.452-4.829 14.041-7.988 22.155-7.987Z"/>
    <path fill="#DBF7FB" d="M119.722 52.717c1.667 1.088 2.214 2.353 2.71 4.206a84.24 84.24 0 0 1 .701 3.895l.095.573c.587 3.569 1.069 7.15 1.526 10.738l.097.762c.235 1.843.457 3.687.667 5.533.231 2.313.21 4.643.215 6.965.002.74.01 1.478.018 2.218.051 9.202.051 9.202-2.479 11.89l-.59.549c-3.328-2.834-3.328-2.834-4.783-4.16a56.981 56.981 0 0 0-2.539-2.165 62.926 62.926 0 0 1-3.277-2.876 47.174 47.174 0 0 0-2.488-2.14 52.53 52.53 0 0 1-2.866-2.493 65.306 65.306 0 0 0-3.571-3.065 64.138 64.138 0 0 1-2.613-2.308c-1.118-.992-1.766-1.335-3.288-1.482-.198 1.555-.198 1.555.306 2.99.441.458.9.861 1.392 1.263.17.15.342.298.518.452.501.434 1.01.857 1.523 1.278l.745.616c.436.356.873.71 1.313 1.06.796.66 1.55 1.356 2.304 2.062a50.56 50.56 0 0 0 2.975 2.602c1.252 1.004 2.416 2.083 3.583 3.183a44.237 44.237 0 0 0 2.649 2.3c1.365 1.09 2.628 2.276 3.892 3.48l.463.439.414.396c.356.339.356.339.855.562-.344 1.033-.814 1.121-1.776 1.605-8.061 3.91-18.582 3.764-27.356 4.409l-.876.065c-7.886.584-15.758.698-23.663.697-1.24 0-2.478.004-3.718.008-.974.003-1.948.003-2.923.003-.456 0-.913.002-1.37.004-2.327.009-4.627-.046-6.944-.28-.287-.03-.287-.03-.58-.058-1.612-.182-3.072-.6-4.576-1.218 1.122-1.208 2.407-2.16 3.724-3.147l1.414-1.07.696-.527c2.106-1.604 4.18-3.25 6.222-4.936.437-.359.874-.717 1.313-1.073a168.86 168.86 0 0 0 7.71-6.64 80.048 80.048 0 0 1 1.573-1.396c.925-.803 1.826-1.63 2.726-2.461l.426-.393c.374-.345.745-.693 1.117-1.04l.465-.408c.518-.623.352-1.32.282-2.085-.45-.546-.45-.546-1.07-.6-.944.142-1.318.578-1.999 1.239l-.73.695-.687.66c-.325.288-.652.574-.982.857a84.614 84.614 0 0 0-2.077 1.872 75.665 75.665 0 0 1-4.011 3.46 45.005 45.005 0 0 0-1.857 1.632c-1.09.992-2.226 1.904-3.39 2.806a163.31 163.31 0 0 0-3.356 2.693 133.052 133.052 0 0 1-5.055 3.911c-.635.472-1.263.95-1.885 1.44l-.443.346c-.394.31-.787.622-1.18.934-.638.452-1.2.737-1.937.987-3.072-3.328-3.222-8.097-3.723-12.385l-.097-.818c-.641-5.409-1.11-10.826-1.515-16.257-.095-1.276-.2-2.55-.32-3.825a93.53 93.53 0 0 1-.4-7.988l-.012-1.036c-.006-.48-.006-.96-.006-1.44l-.002-.836c.164-1.381.784-2.384 1.838-3.273 2.688-.896 5.354.288 7.768 1.468.538.276 1.075.556 1.61.837l.876.458c6.345 3.351 12.294 7.448 18.28 11.39l1.453.955c4.749 3.116 4.749 3.116 6.874 4.695.722.53 1.463 1.008 2.226 1.478.259.16.517.322.784.488 2.392 1.309 5.498 1.37 8.117.684 2.121-.966 3.726-2.633 5.354-4.257l.724-.715c.83-.819 1.658-1.64 2.485-2.463l.413-.41c1.375-1.37 2.74-2.74 3.994-4.224.392-.45.807-.867 1.233-1.286a26.69 26.69 0 0 0 1.639-1.761c1.123-1.29 2.324-2.498 3.533-3.707l.663-.673c1.507-1.51 3.088-2.877 4.758-4.204.432-.352.863-.705 1.293-1.059 3.868-3.085 3.868-3.085 6.466-2.15Z"/>
    <path fill="#FCD96E" d="m87.037 26.264.807.273c4.88 1.81 8.68 5.549 11.656 9.698l.434.6c3.776 5.772 4.473 12.64 4.302 19.34l-.01.556c-.04 1.376-.13 2.485-1.006 3.583-.628.568-1.287 1.1-1.975 1.595-.351.292-.7.587-1.044.888l-.49.426c-.616.577-1.15 1.208-1.695 1.851-.64.72-1.32 1.393-2.005 2.07a46.931 46.931 0 0 0-2.799 2.992c-.738.83-1.539 1.596-2.329 2.375-.69.7-1.33 1.431-1.959 2.187-1.036 1.116-1.895 1.29-3.382 1.419l-.555.082c-3.88.558-6.17-.715-9.245-3.003l-.705-.536c-1.2-.895-2.453-1.705-3.703-2.525l-1.417-.945-.708-.472-1.498-1a323.624 323.624 0 0 0-3.884-2.562l-.725-.473c-.453-.295-.907-.588-1.362-.879l-.615-.403-.538-.346c-2.306-1.954-3.37-7.222-3.668-10.1-.079-1.505-.093-3.014-.105-4.522l-.007-.885c.023-5.856 1.85-10.925 5.802-15.301l.566-.637c2.623-2.792 5.782-4.667 9.405-5.844l.783-.256c4.46-1.192 9.377-.833 13.674.754Z"/>
    <path fill="#DCF6FB" d="M38.431 53.932a5.992 5.992 0 0 1-1.464 1.169c-1.428 1.056-2.071 2.349-2.428 4.084-.22 1.67-.17 3.363-.159 5.045l.002.606c.007 2.698.117 5.348.448 8.028.172 1.416.158 2.825.111 4.25-1.51.447-2.952.566-4.518.592l-.576.02c-1.623.005-2.655-.422-3.854-1.56-.39-.78-.396-1.472-.43-2.34.05-1.053.05-1.053-.343-1.947-1.24-.06-2.337-.002-3.552.25-2.581.497-5.058.532-7.415-.748-1.262-.903-2.275-1.724-2.742-3.24-.165-1.1-.115-1.99.342-3.007.787-.881 1.669-1.525 2.637-2.197.585-.502.585-.502.615-1.309-.036-.747-.036-.747-.603-1.215a53.82 53.82 0 0 0-2.088-.436c-3.545-.744-6-2.139-8.259-5.03-.924-1.506-.812-3.302-.62-5.003.429-1.672 1.59-2.793 2.99-3.739 10.353-5.686 23.458 1.566 31.906 7.727Z"/>
    <path fill="#FBDB75" d="m86.788 16.543.515.154c4.036 1.208 7.933 3.159 11.2 5.828l.407.33c7.93 6.437 13.146 15.634 14.3 25.843l.129.661c.089.696.082 1.158-.129 1.832-.773.77-1.65 1.333-2.557 1.933-.904.645-1.688 1.429-2.492 2.191-.913.86-.913.86-1.183.86l-.011-.641c-.188-9.799-1.987-18.23-8.962-25.53l-.406-.455c-3.845-4.143-10.207-7.182-15.833-7.577-7.698-.263-14.138 1.427-19.904 6.785-5.18 5.261-7.764 12.168-7.852 19.49l-.006.51c-.022 3.44.65 6.515 1.687 9.802a24.7 24.7 0 0 1 .438 1.605 18.133 18.133 0 0 1-2.596-1.239l-.762-.43-.786-.45-.793-.449c-1.93-1.096-1.93-1.096-2.79-1.67-.613-2.488-.6-5.165-.593-7.711v-.537c.033-9.135 2.806-17.328 9.223-23.937 7.524-7.457 19.608-10.507 29.756-7.198Z"/>
    <path fill="#DCF6FB" d="M147.622 38.573c1.49 1.241 2.524 2.431 2.798 4.397.157 2.242-.964 3.892-2.376 5.541-2.431 2.56-5.431 3.77-8.836 4.53-.561.088-.561.088-.823.393-.131.834-.131.834 0 1.745.564.648.564.648 1.324 1.153 1.17.847 2.028 1.507 2.274 2.988.002 1.555-.093 2.847-1.105 4.084-2.039 1.767-4.075 2.046-6.703 2.134-.764.048-.764.048-1.248.446-.432.648-.369 1.151-.275 1.907l.39.358c.358.39.358.39.358 1.231-.295 1.07-.634 1.465-1.496 2.15-.923.45-1.656.56-2.679.545l-.729-.005c-.58-.041-.58-.041-.829-.29a78.107 78.107 0 0 1-.308-2.26l-.182-1.435-.097-.763c-.659-5.227-.659-5.227-1.532-10.42l-.124-.705c-.522-2.57-1.862-4.578-3.989-6.103-1.135-.658-2.452-.653-3.739-.748.073-.762.252-1 .816-1.535 6.32-4.776 20.918-14.52 29.11-9.338Z"/>
    <path fill="#E1DAD7" d="M78.497 128.665c1.048 0 2.096-.002 3.144-.005 22.634-.072 22.634-.072 28.827 2.544l.498.498c-.015.483-.015.483-.249.997-2.495 1.755-6.086 1.97-9.036 2.275l-.578.061c-42.53 4.477-42.53 4.477-54.197-2.086-.343-.546-.343-.546-.499-.997.97-.894 1.874-1.253 3.14-1.524l.56-.125c1.986-.422 3.988-.646 6.008-.833.613-.057 1.227-.119 1.84-.182 6.829-.677 13.687-.624 20.542-.623Z"/>
    <path fill="#BFE2EA" d="M120.189 102.04c-.344 1.033-.814 1.121-1.776 1.605-8.061 3.91-18.582 3.764-27.356 4.409l-.875.065c-7.888.584-15.76.698-23.664.697-1.24 0-2.478.004-3.717.008-.975.003-1.95.003-2.924.003-.456 0-.913.002-1.37.004-2.328.009-4.629-.046-6.947-.282l-.581-.06a17.335 17.335 0 0 1-3.325-.716l.249-.498.74.052c2.933.198 5.856.247 8.794.244h.746c8.318-.011 16.612-.462 24.898-1.189 1.049-.091 2.099-.176 3.148-.26 10.146-.813 20.754-1.745 30.619-4.378 1.17-.28 2.239-.255 3.341.296ZM33.944 61.41h.25l.014.608c.089 3.42.18 6.822.568 10.223.181 1.631.22 3.23.165 4.873-1.51.447-2.952.566-4.518.592l-.576.02c-1.41.004-2.222-.303-3.38-1.11-.5-.655-.5-.655-.748-1.247l.249-.498c.334-.1.673-.187 1.012-.265 1.777-.573 2.729-1.854 3.63-3.437 1.496-3.075 2.503-6.448 3.334-9.759Z"/>
    <path fill="#4B5C75" d="M94.515 40.721c1.208.604 1.825 1.33 2.493 2.493.48 1.44.474 2.944-.172 4.331-.568 1.001-1.29 1.634-2.321 2.15-1.642.195-1.642.195-2.487-.273-1.046-.837-1.635-1.658-2-2.967-.16-1.554-.195-2.93.748-4.238 1.151-1.318 1.989-1.774 3.739-1.496Zm-24.926 1.745c1.37.466 2.061 1.258 2.742 2.493.202.623.202.623.249 1.246l.078.81c-.124 1.49-.636 2.676-1.62 3.802-.97.517-1.85.673-2.945.623-1.217-.487-1.957-1.393-2.515-2.566-.499-1.483-.49-3.11.178-4.523l.592-.638.338-.365c.942-.912 1.627-1.064 2.903-.882Z"/>
    <path fill="#4B5B73" d="M78.064 50.692c.547.473.547.473 1.028 1.09.816 1.049.816 1.049 1.963 1.652 1.621.161 3.405.31 4.736-.748.17-.296.33-.598.483-.904.514-.84.514-.84 1.386-1.137.873.047.873.047 1.496.42.374.624.374.624.405 1.434-.435 1.449-1.098 2.484-2.377 3.323-1.103.578-2.133 1.023-3.387 1.102l-.54.055c-2.313.143-4.347-.712-6.097-2.205-1.28-1.193-1.28-1.193-1.415-2.081a18.35 18.35 0 0 1 .075-1.502c.872-.581 1.218-.632 2.244-.499Z"/>
    <path fill="#ECB157" d="M47.155 32.496c.25.498.25.498.036 1.18l-.332.892c-1.605 4.603-1.835 9.119-1.76 13.958.01 1.968.03 3.936.062 5.904l-1.184-.233-.666-.131a34.468 34.468 0 0 1-1.64-.383c-.263-7.817 1.41-14.536 5.484-21.187Z"/>
    <path fill="#FCAB97" d="M67.138 52.146c.551.363.988.822 1.454 1.288.088.798.041 1.374-.218 2.134-1.032 1.184-2.306 1.757-3.854 1.967-1.613.052-2.699-.002-3.905-1.11-.498-.498-.498-.498-.607-1.449.024-.84.098-1.03.623-1.745 1.848-1.376 4.26-1.948 6.507-1.085Z"/>
    <path fill="#FCAB96" d="M99.612 48.877c1.622-.1 2.614.311 3.876 1.316.25.25.25.25.39 1.169-.004.719-.058.985-.55 1.522a15.12 15.12 0 0 1-1.584 1.048l-.458.285c-1.325.526-3.232.491-4.572.025-.975-.615-1.33-1.305-1.591-2.381.234-1.119.986-1.751 1.885-2.415.848-.399 1.683-.463 2.604-.569Z"/>
    <path fill="#C0E3EB" d="M126.171 59.915h.499l.148.677c.754 3.145 1.92 6.534 4.339 8.795.492.26.99.512 1.495.748l.249.747c-1.282.884-2.089 1.282-3.645 1.278l-.742.002c-.598-.033-.598-.033-.847-.283a18.464 18.464 0 0 1-.166-1.046l-.09-.673-.096-.732-.099-.748-.207-1.57c-.105-.803-.211-1.605-.318-2.407l-.201-1.523-.185-1.407-.079-.596c-.055-.514-.055-.514-.055-1.262Z"/>
    <path fill="#C9EAF1" d="M33.944 61.41h.25c.297 8.105.297 8.105.249 11.466h-.25l-.041-.677a2403.062 2403.062 0 0 0-.356-5.674 33.734 33.734 0 0 0-.257-2.56c-.119-1.03.065-1.595.405-2.555Z"/>
    <path fill="#F7E075" d="M65.85 29.255c0 .748 0 .748-.484 1.242l-.653.55c-1.37 1.192-2.59 2.428-3.6 3.941l-.498-.249c1.516-1.99 3.135-4.084 5.235-5.484Z"/>
    <path fill="#D6BB78" d="M103.738 48.2h.249c.22 1.803.281 3.574.265 5.39l-.004.758c-.002.61-.007 1.219-.012 1.828h-.249l-.038-.515c-.058-.768-.119-1.537-.18-2.305l-.06-.81-.063-.776-.055-.716c-.07-.673-.07-.673-.601-1.359.164-.082.329-.164.498-.25.164-.63.164-.629.25-1.245Z"/>
    <path fill="#C4E4EC" d="m47.903 107.275 4.237.249v.748c-1.596.052-2.973.04-4.486-.499l.249-.498Z"/>
    <path fill="#E2B25E" d="M47.155 32.496c.392.783.03 1.337-.233 2.15l-.288.898-.227.69h-.498c-.251-.796-.298-1.139.053-1.913l.43-.657.427-.667.336-.501Z"/>
    <path fill="#B7DAE3" d="M50.645 107.773h3.739v.499l-3.24.249-.499-.748Z"/>
    <path fill="#F3F0EB" d="m124.676 102.788.748.25c-.357.328-.716.655-1.075.98l-.605.553c-.564.46-.564.46-1.312.71.282-.844.56-1.102 1.216-1.683l.527-.479.501-.331Z"/>
    <path fill="#D7EFF4" d="M109.72 58.17c-.347.84-.743 1.243-1.496 1.745 0-.748 0-.748.468-1.293.529-.452.529-.452 1.028-.452Z"/>
    <path fill="#D5EAEE" d="M104.735 63.155c-.345.8-.729 1.259-1.402 1.807l-.477.394-.365.292c.145-.82.386-1.23.982-1.807l.396-.394c.367-.292.367-.292.866-.292Z"/>
    <path fill="#C8EAEF" d="M126.171 59.915h.499c.618 2.345.618 2.345.249 3.49-.447-.778-.584-1.416-.654-2.306l-.057-.674-.037-.51Z"/>
    <path fill="#DAEEF3" d="M100.996 67.143c-.345.8-.729 1.259-1.402 1.807l-.477.394-.365.292c.329-1.044 1.004-2.493 2.244-2.493Z"/>
    <path fill="#F3DF7D" d="m54.135 27.012.498.25c-1.033 1.887-1.033 1.887-1.745 2.492-.082-.165-.164-.33-.25-.499l1.497-2.243Z"/>
  </g>
  <path fill="#495B73" d="M171.32 53.1h4.12v15.08a9.395 9.395 0 0 1-.76.24c-.347.08-.72.12-1.12.12-.667 0-1.213-.213-1.64-.64-.4-.427-.6-.973-.6-1.64V53.1Zm4.12 6.36-4.12-.04V46.46c0-.693.2-1.24.6-1.64.427-.427.973-.64 1.64-.64.4 0 .773.04 1.12.12.373.08.627.16.76.24v14.92Zm-1.88-1.72v-3.4h12.08c.107.16.2.387.28.68.107.293.16.613.16.96 0 .56-.133 1-.4 1.32-.267.293-.64.44-1.12.44h-11Zm0 10.8V65.1h13.48c.107.16.2.387.28.68.107.293.16.613.16.96 0 .56-.133 1-.4 1.32-.267.32-.64.48-1.12.48h-12.4Zm0-20.92v-3.44h13.28c.107.16.2.387.28.68.107.293.16.613.16.96 0 .56-.133 1-.4 1.32-.267.32-.64.48-1.12.48h-12.2Zm34.21 7.92v4.6h-4.08v-4.16c0-1.2-.347-2.067-1.04-2.6-.693-.56-1.587-.84-2.68-.84-.747 0-1.467.12-2.16.36-.667.24-1.227.507-1.68.8v6.44h-4.12v-6.52c0-.587.12-1.08.36-1.48.267-.4.68-.773 1.24-1.12.747-.507 1.707-.933 2.88-1.28a12.5 12.5 0 0 1 3.56-.52c1.333 0 2.533.213 3.6.64 1.067.4 1.907.973 2.52 1.72.187.16.347.32.48.48.133.133.253.307.36.52.213.373.387.813.52 1.32.16.507.24 1.053.24 1.64Zm11.64.24v4.36h-4.08v-4.16c0-1.2-.333-2.067-1-2.6-.667-.56-1.56-.84-2.68-.84-.827 0-1.627.173-2.4.52a6.943 6.943 0 0 0-2 1.4l-1.92-2.68c.773-.693 1.72-1.293 2.84-1.8 1.12-.507 2.427-.76 3.92-.76 1.413 0 2.667.24 3.76.72 1.12.453 1.987 1.173 2.6 2.16.64.96.96 2.187.96 3.68Zm-27.4 2.32h4.12v10.32c-.187.053-.453.12-.8.2-.32.08-.68.12-1.08.12-.747 0-1.307-.147-1.68-.44-.373-.293-.56-.773-.56-1.44V58.1Zm11.68 0h4.08v10.32c-.16.053-.413.12-.76.2-.347.08-.72.12-1.12.12-.747 0-1.307-.147-1.68-.44-.347-.293-.52-.773-.52-1.44V58.1Zm11.64 0h4.08v10.32c-.16.053-.413.12-.76.2-.347.08-.707.12-1.08.12-.773 0-1.347-.147-1.72-.44-.347-.293-.52-.773-.52-1.44V58.1Zm16.689 7.76c.96 0 1.773-.093 2.44-.28.693-.213 1.2-.413 1.52-.6v-5.16l-4.44.44c-1.227.107-2.16.387-2.8.84-.614.427-.92 1.067-.92 1.92 0 .88.346 1.573 1.04 2.08.693.507 1.746.76 3.16.76Zm-.12-16.64c2.48 0 4.44.547 5.88 1.64 1.466 1.067 2.2 2.76 2.2 5.08v9.32c0 .613-.134 1.093-.4 1.44-.267.347-.64.653-1.12.92-.694.4-1.6.733-2.72 1-1.094.293-2.334.44-3.72.44-2.587 0-4.614-.493-6.08-1.48-1.44-1.013-2.16-2.493-2.16-4.44 0-1.76.573-3.107 1.72-4.04 1.146-.96 2.773-1.533 4.88-1.72l5.6-.56v-.92c0-1.2-.387-2.067-1.16-2.6-.774-.533-1.827-.8-3.16-.8-1.067 0-2.107.147-3.12.44a17.63 17.63 0 0 0-2.64 1 3.56 3.56 0 0 1-.64-.76 1.954 1.954 0 0 1-.28-1c0-.827.453-1.453 1.36-1.88.746-.347 1.6-.613 2.56-.8a16.09 16.09 0 0 1 3-.28Zm13.23-5.16c0-.693.24-1.267.72-1.72.48-.453 1.067-.68 1.76-.68.747 0 1.347.227 1.8.68.454.453.68 1.027.68 1.72 0 .667-.226 1.24-.68 1.72-.453.453-1.053.68-1.8.68-.693 0-1.28-.227-1.76-.68a2.347 2.347 0 0 1-.72-1.72Zm.44 13.88h4.12v10.48c-.186.053-.453.12-.8.2-.32.08-.68.12-1.08.12-.746 0-1.306-.147-1.68-.44-.373-.293-.56-.773-.56-1.44v-8.92Zm4.12 2.04h-4.12V49.9c.187-.053.454-.107.8-.16.347-.08.72-.12 1.12-.12.747 0 1.294.147 1.64.44.374.267.56.747.56 1.44v8.48Zm6.079-2.04 4.08.36v10.12a9.27 9.27 0 0 1-.76.2c-.347.08-.721.12-1.121.12-.746 0-1.306-.147-1.679-.44-.347-.293-.52-.773-.52-1.44v-8.92Zm4.08 2.4-4.08-.36V42.54c.16-.053.413-.12.76-.2a4.78 4.78 0 0 1 1.08-.12c.773 0 1.333.147 1.68.44.373.267.56.747.56 1.44v16.24Zm30.282-5.48-2.36-3c0-.56.173-1.04.52-1.44.346-.427.853-.64 1.52-.64.346 0 .693.093 1.04.28.346.187.733.44 1.16.76l5.12 4c.133.187.24.427.32.72.106.267.16.587.16.96 0 .427-.08.787-.24 1.08-.134.293-.32.547-.56.76l-6.72 5.2c-.667-.16-1.16-.413-1.48-.76-.32-.373-.48-.747-.48-1.12 0-.4.093-.76.28-1.08a9.98 9.98 0 0 1 .68-1.08l1.04-1.36h-17.32a4.937 4.937 0 0 1-.36-.68c-.107-.293-.16-.6-.16-.92 0-.587.133-1.013.4-1.28.293-.267.68-.4 1.16-.4h16.28ZM171.32 89.42h4.2v14.76l-1.96.36c-.667 0-1.213-.213-1.64-.64-.4-.427-.6-.973-.6-1.64V89.42Zm2.24 15.12v-3.52h12.88c.133.16.253.387.36.68.107.293.16.627.16 1 0 .587-.147 1.04-.44 1.36-.293.32-.68.48-1.16.48h-11.8Zm1.96-11h-4.2V80.22a6.93 6.93 0 0 1 .8-.16c.373-.08.76-.12 1.16-.12.773 0 1.333.147 1.68.44.373.267.56.76.56 1.48v11.68Zm14.615 3.96v-3.4h4.12v3.28c0 1.547.4 2.667 1.2 3.36.827.667 1.96 1 3.4 1 .96 0 1.773-.093 2.44-.28.667-.213 1.173-.427 1.52-.64V94.1h4.12v6.88c0 .587-.093 1.067-.28 1.44-.187.373-.56.733-1.12 1.08-.667.4-1.573.76-2.72 1.08-1.147.32-2.48.48-4 .48-1.787 0-3.333-.267-4.64-.8-1.307-.533-2.307-1.36-3-2.48-.693-1.12-1.04-2.547-1.04-4.28Zm16.8-1.4h-4.12V85.86c.187-.053.453-.12.8-.2.347-.08.707-.12 1.08-.12.773 0 1.333.147 1.68.44.373.267.56.76.56 1.48v8.64Zm-12.68 0h-4.12V85.86c.187-.053.453-.12.8-.2.347-.08.72-.12 1.12-.12.747 0 1.293.147 1.64.44.373.267.56.76.56 1.48v8.64Zm34.985-3.88v3.96h-4.12v-3.8c0-1.333-.374-2.307-1.12-2.92-.747-.613-1.747-.92-3-.92-.934 0-1.774.12-2.52.36-.747.24-1.387.507-1.92.8v6.48h-4.12v-6.56c0-.613.12-1.107.36-1.48.266-.4.68-.773 1.24-1.12.746-.453 1.72-.867 2.92-1.24s2.546-.56 4.04-.56c2.586 0 4.6.587 6.04 1.76 1.466 1.147 2.2 2.893 2.2 5.24Zm-16.8 1.88h4.12v10.32c-.187.053-.454.12-.8.2-.32.08-.68.12-1.08.12-.747 0-1.307-.147-1.68-.44-.374-.293-.56-.773-.56-1.44V94.1Zm12.68 0h4.12v10.32c-.187.053-.454.12-.8.2-.347.08-.707.12-1.08.12-.774 0-1.347-.147-1.72-.44-.347-.293-.52-.773-.52-1.44V94.1Zm18.784-5.52c-1.68 0-3.093.573-4.24 1.72-1.146 1.12-1.72 2.747-1.72 4.88 0 2.107.547 3.72 1.64 4.84 1.12 1.12 2.56 1.68 4.32 1.68 1.04 0 1.92-.133 2.64-.4.72-.293 1.347-.613 1.88-.96.347.213.627.467.84.76.214.293.32.64.32 1.04 0 .827-.546 1.52-1.64 2.08-1.093.533-2.506.8-4.24.8-1.946 0-3.666-.36-5.16-1.08-1.493-.72-2.666-1.813-3.52-3.28-.826-1.467-1.24-3.293-1.24-5.48 0-2.213.44-4.053 1.32-5.52.88-1.467 2.067-2.573 3.56-3.32 1.494-.747 3.134-1.12 4.92-1.12 1.707 0 3.094.307 4.16.92 1.094.587 1.64 1.28 1.64 2.08 0 .373-.106.707-.32 1a2.306 2.306 0 0 1-.72.72 9.552 9.552 0 0 0-1.88-.96c-.693-.267-1.546-.4-2.56-.4Zm26.938 7.88h-4.08v-3.64c0-1.467-.413-2.547-1.24-3.24-.8-.693-1.826-1.04-3.08-1.04-.986 0-1.893.187-2.72.56-.826.373-1.52.813-2.08 1.32l-.44-3.32c.614-.427 1.427-.84 2.44-1.24 1.014-.427 2.16-.64 3.44-.64 2.32 0 4.187.627 5.6 1.88 1.44 1.227 2.16 3.08 2.16 5.56v3.8Zm-16.76-2.52h4.12v10.48c-.186.053-.453.12-.8.2-.32.08-.68.12-1.08.12-.746 0-1.306-.147-1.68-.44-.373-.293-.56-.773-.56-1.44v-8.92Zm12.68.04h4.08v10.44c-.16.053-.413.12-.76.2-.346.08-.72.12-1.12.12-.746 0-1.306-.147-1.68-.44-.346-.293-.52-.773-.52-1.44v-8.88Zm-8.56 2h-4.12V78.54c.187-.053.454-.12.8-.2.347-.08.72-.12 1.12-.12.747 0 1.294.147 1.64.44.374.267.56.747.56 1.44v15.88Zm41.311 2.28c-.214.16-.507.307-.88.44a3.67 3.67 0 0 1-1.24.2c-.56 0-1.04-.08-1.44-.24-.4-.16-.68-.427-.84-.8a287.086 287.086 0 0 1-3.24-7.56 148.084 148.084 0 0 1-2.16-5.6h-.2a768.13 768.13 0 0 1-.24 5.28c-.08 1.627-.16 3.2-.24 4.72-.08 1.52-.16 3.08-.24 4.68-.08 1.573-.174 3.267-.28 5.08a9.745 9.745 0 0 1-.84.16c-.32.08-.654.12-1 .12-.747 0-1.294-.133-1.64-.4-.347-.293-.52-.72-.52-1.28 0-.4.026-1.173.08-2.32.08-1.173.16-2.573.24-4.2.106-1.627.213-3.347.32-5.16.133-1.84.266-3.653.4-5.44.16-1.787.293-3.413.4-4.88.213-.213.56-.427 1.04-.64.48-.24 1.08-.36 1.8-.36.8 0 1.453.147 1.96.44.533.293.933.747 1.2 1.36a69.923 69.923 0 0 1 1.84 4.12c.613 1.467 1.213 2.96 1.8 4.48.586 1.493 1.146 2.88 1.68 4.16h.2c1.04-2.667 2.066-5.24 3.08-7.72l2.64-6.36c.293-.133.653-.24 1.08-.32a5.75 5.75 0 0 1 1.32-.16c.773 0 1.4.133 1.88.4.48.24.773.613.88 1.12.106.48.226 1.267.36 2.36.133 1.093.266 2.373.4 3.84.133 1.467.253 3 .36 4.6.133 1.6.253 3.173.36 4.72.133 1.52.24 2.907.32 4.16.08 1.227.133 2.213.16 2.96-.294.187-.6.32-.92.4-.32.08-.707.12-1.16.12a3.176 3.176 0 0 1-1.44-.32c-.4-.24-.627-.693-.68-1.36a2561.24 2561.24 0 0 0-.4-7.08c-.134-2.32-.24-4.44-.32-6.36-.08-1.947-.16-3.547-.24-4.8h-.16c-.507 1.36-1.214 3.107-2.12 5.24-.88 2.107-2 4.84-3.36 8.2Zm34.011-3.12c0 2-.387 3.747-1.16 5.24-.774 1.493-1.867 2.653-3.28 3.48-1.414.8-3.08 1.2-5 1.2s-3.587-.4-5-1.2a8.486 8.486 0 0 1-3.28-3.44c-.774-1.493-1.16-3.253-1.16-5.28s.386-3.773 1.16-5.24c.8-1.493 1.906-2.64 3.32-3.44 1.44-.827 3.093-1.24 4.96-1.24 1.893 0 3.546.413 4.96 1.24 1.413.8 2.506 1.947 3.28 3.44.8 1.467 1.2 3.213 1.2 5.24Zm-9.44-6.6c-1.6 0-2.88.587-3.84 1.76-.934 1.173-1.4 2.787-1.4 4.84 0 2.08.453 3.707 1.36 4.88.933 1.147 2.226 1.72 3.88 1.72 1.653 0 2.933-.587 3.84-1.76.933-1.173 1.4-2.787 1.4-4.84s-.467-3.667-1.4-4.84c-.934-1.173-2.214-1.76-3.84-1.76Zm30.742 3.68v3.96h-4.12v-3.8c0-1.333-.374-2.307-1.12-2.92-.747-.613-1.747-.92-3-.92-.934 0-1.774.12-2.52.36-.747.24-1.387.507-1.92.8v6.48h-4.12v-6.56c0-.613.12-1.107.36-1.48.266-.4.68-.773 1.24-1.12.746-.453 1.72-.867 2.92-1.24s2.546-.56 4.04-.56c2.586 0 4.6.587 6.04 1.76 1.466 1.147 2.2 2.893 2.2 5.24Zm-16.8 1.88h4.12v10.32c-.187.053-.454.12-.8.2-.32.08-.68.12-1.08.12-.747 0-1.307-.147-1.68-.44-.374-.293-.56-.773-.56-1.44V94.1Zm12.68 0h4.12v10.32c-.187.053-.454.12-.8.2-.347.08-.707.12-1.08.12-.774 0-1.347-.147-1.72-.44-.347-.293-.52-.773-.52-1.44V94.1Zm11.344 3.32-.2-3 11.36-1.6c-.08-1.253-.52-2.293-1.32-3.12-.8-.853-1.933-1.28-3.4-1.28-1.493 0-2.733.533-3.72 1.6-.986 1.067-1.493 2.587-1.52 4.56l.08 1.52c.214 1.893.894 3.32 2.04 4.28 1.147.933 2.654 1.4 4.52 1.4 1.12 0 2.147-.173 3.08-.52.934-.347 1.68-.72 2.24-1.12.32.187.574.44.76.76.214.32.32.667.32 1.04 0 .587-.293 1.12-.88 1.6-.586.48-1.386.853-2.4 1.12-.986.267-2.106.4-3.36.4-2.053 0-3.853-.373-5.4-1.12a8.372 8.372 0 0 1-3.6-3.4c-.853-1.52-1.28-3.373-1.28-5.56 0-1.573.227-2.96.68-4.16.48-1.227 1.134-2.253 1.96-3.08a8.215 8.215 0 0 1 2.92-1.88c1.12-.427 2.32-.64 3.6-.64 1.68 0 3.16.36 4.44 1.08 1.307.693 2.32 1.667 3.04 2.92.72 1.253 1.08 2.68 1.08 4.28 0 .667-.16 1.16-.48 1.48-.32.293-.773.48-1.36.56l-13.2 1.88Zm22.818 2.76c-.454-.88-.974-2.013-1.56-3.4a98.96 98.96 0 0 1-1.84-4.72 93.233 93.233 0 0 1-1.84-5.64c.213-.293.506-.533.88-.72.4-.187.826-.28 1.28-.28.586 0 1.066.133 1.44.4.373.267.666.747.88 1.44.72 2.16 1.48 4.293 2.28 6.4.8 2.107 1.653 4.28 2.56 6.52h.16c.533-1.147 1.08-2.533 1.64-4.16a97.545 97.545 0 0 0 1.6-5.12c.533-1.787.96-3.48 1.28-5.08.266-.107.546-.2.84-.28.293-.08.6-.12.92-.12.586 0 1.066.133 1.44.4.4.267.6.693.6 1.28 0 .533-.12 1.32-.36 2.36-.214 1.013-.534 2.173-.96 3.48-.4 1.307-.867 2.68-1.4 4.12a56.762 56.762 0 0 1-1.68 4.16 47.545 47.545 0 0 1-1.84 3.68c-1.28 2.347-2.467 4.133-3.56 5.36-1.067 1.227-2.08 1.84-3.04 1.84-.747 0-1.334-.213-1.76-.64-.427-.4-.68-.893-.76-1.48a26.488 26.488 0 0 0 1.88-1.92 23.894 23.894 0 0 0 2-2.48c.666-.88 1.213-1.72 1.64-2.52-.454-.133-.894-.387-1.32-.76-.427-.4-.894-1.107-1.4-2.12Z"/>
  <defs>
    <clipPath id="a">
      <path fill="#fff" d="M0 12h154v127H0z"/>
    </clipPath>
  </defs>
</svg>
